<svg width="156" height="156" viewBox="0 0 156 156" fill="none" xmlns="http://www.w3.org/2000/svg">
<path d="M153 75C153 84.8491 151.06 94.6018 147.291 103.701C143.522 112.801 137.997 121.069 131.033 128.033C124.069 134.997 115.801 140.522 106.701 144.291C97.6018 148.06 87.8491 150 78 150C68.1509 150 58.3982 148.06 49.2987 144.291C40.1993 140.522 31.9314 134.997 24.967 128.033C18.0026 121.069 12.4781 112.801 8.70903 103.701C4.93993 94.6018 3 84.8491 3 75L3.9922 75C3.99219 84.7188 5.90646 94.3425 9.6257 103.322C13.3449 112.301 18.7963 120.459 25.6686 127.331C32.5408 134.204 40.6994 139.655 49.6784 143.374C58.6575 147.094 68.2812 149.008 78 149.008C87.7188 149.008 97.3425 147.094 106.322 143.374C115.301 139.655 123.459 134.204 130.331 127.331C137.204 120.459 142.655 112.301 146.374 103.322C150.094 94.3425 152.008 84.7188 152.008 75H153Z" stroke="black" stroke-width="4"/>
</svg>
